HIERARCHY
ROOT Hips
{
	OFFSET 0.00000 0.00000 0.00000
	CHANNELS 6 Xposition Yposition Zposition Zrotation Yrotation Xrotation 
	JOINT LHipJoint
	{
		OFFSET 0 0 0
		CHANNELS 3 Zrotation Yrotation Xrotation
		JOINT LeftHip
		{
			OFFSET 1.48416 -1.82041 0.59464
			CHANNELS 3 Zrotation Yrotation Xrotation
			JOINT LeftKnee
			{
				OFFSET 2.43280 -6.68407 0.00000
				CHANNELS 3 Zrotation Yrotation Xrotation
				JOINT LeftAnkle
				{
					OFFSET 2.68325 -7.37216 0.00000
					CHANNELS 3 Zrotation Yrotation Xrotation
					JOINT LeftToe
					{
						OFFSET 0.15365 -0.42214 1.91990
						CHANNELS 3 Zrotation Yrotation Xrotation
						End Site
						{
							OFFSET 0.00000 -0.00000 0.99320
						}
					}
				}
			}
		}
	}
	JOINT RHipJoint
	{
		OFFSET 0 0 0
		CHANNELS 3 Zrotation Yrotation Xrotation
		JOINT RightHip
		{
			OFFSET -1.70852 -1.82040 0.59464
			CHANNELS 3 Zrotation Yrotation Xrotation
			JOINT RightKnee
			{
				OFFSET -2.50396 -6.87957 0.00000
				CHANNELS 3 Zrotation Yrotation Xrotation
				JOINT RightAnkle
				{
					OFFSET -2.67204 -7.34139 0.00000
					CHANNELS 3 Zrotation Yrotation Xrotation
					JOINT RightToe
					{
						OFFSET -0.17346 -0.47657 2.02009
						CHANNELS 3 Zrotation Yrotation Xrotation
						End Site
						{
							OFFSET -0.00000 -0.00000 1.04609
						}
					}
				}
			}
		}
	}
	JOINT lowerback
	{
		OFFSET 0 0 0
		CHANNELS 3 Zrotation Yrotation Xrotation
		JOINT Chest
		{
			OFFSET -0.01022 1.99636 -0.30653
			CHANNELS 3 Zrotation Yrotation Xrotation
			JOINT Chest2
			{
				OFFSET -0.01683 2.01212 0.04808
				CHANNELS 3 Zrotation Yrotation Xrotation
				JOINT lowerneck
				{
					OFFSET 0 0 0
					CHANNELS 3 Zrotation Yrotation Xrotation
					JOINT Neck
					{
						OFFSET -0.03080 1.91178 0.03911
						CHANNELS 3 Zrotation Yrotation Xrotation
						JOINT Head
						{
							OFFSET 0.10605 1.89839 -0.23433
							CHANNELS 3 Zrotation Yrotation Xrotation
							End Site
							{
								OFFSET 0.03474 1.92469 -0.08609
							}
						}
					}
				}
				JOINT LeftCollar
				{
					OFFSET 0 0 0
					CHANNELS 3 Zrotation Yrotation Xrotation
					JOINT LeftShoulder
					{
						OFFSET 3.78977 1.27972 -0.24661
CHANNELS 3 Zrotation Xrotation Yrotation
						JOINT LeftElbow
						{
OFFSET 0 -5.641470 -0.000000
CHANNELS 3 Zrotation Xrotation Yrotation
							JOINT LeftWrist
							{
OFFSET 0 -2.864440 -0.000000
CHANNELS 3 Zrotation Xrotation Yrotation
								JOINT lhand
								{
									OFFSET 0 0 0
CHANNELS 3 Zrotation Xrotation Yrotation
									JOINT LFingers
									{
OFFSET 0 -0.722120 -0.000000
CHANNELS 3 Zrotation Xrotation Yrotation
										End Site
										{
OFFSET 0 -0.582190 -0.000000
										}
									}
								}
								JOINT LThumb
								{
OFFSET 0 0.000000 0.000000
CHANNELS 3 Zrotation Xrotation Yrotation
									End Site
									{
OFFSET 0 -0.591080 0.591080
									}
								}
							}
						}
					}
				}
				JOINT RightCollar
				{
					OFFSET 0 0 0
					CHANNELS 3 Zrotation Yrotation Xrotation
					JOINT RightShoulder
					{
						OFFSET -3.41176 1.18605 -0.57927
CHANNELS 3 Zrotation Xrotation Yrotation
						JOINT RightElbow
						{
OFFSET 0 -5.447290 -0.000000
CHANNELS 3 Zrotation Xrotation Yrotation
							JOINT RightWrist
							{
OFFSET 0 -3.088210 -0.000000
CHANNELS 3 Zrotation Xrotation Yrotation
								JOINT rhand
								{
									OFFSET 0 0 0
CHANNELS 3 Zrotation Xrotation Yrotation
									JOINT RFingers
									{
OFFSET 0 -0.821050 -0.000000
CHANNELS 3 Zrotation Xrotation Yrotation
										End Site
										{
OFFSET 0 -0.661950 -0.000000
										}
									}
								}
								JOINT RThumb
								{
OFFSET 0 0.000000 0.000000
CHANNELS 3 Zrotation Xrotation Yrotation
									End Site
									{
OFFSET 0 -0.672060 0.672060
									}
								}
							}
						}
					}
				}
			}
		}
	}
}
MOTION
Frames: 8
Frame Time: 0.008333333333333333
3.301711 17.696505 0.173763 420.718285 90.213874 418.003337 0.000000 0.000000 0.000000 -16.091580 2.422594 3.758142 0.149878 2.494691 6.874848 0.213505 -3.898909 -8.251852 0.088816 -1.922073 -5.290349 0.000000 0.000000 0.000000 19.008229 -0.052086 3.083359 -0.646038 -5.141655 14.312961 -1.110148 -0.729303 -20.190827 -0.115516 2.191086 -6.034080 3.093529 0.402476 7.091588 -0.677935 0.772456 0.451189 -2.517555 0.337717 -3.461126 -5.379543 -5.287008 -2.194942 8.524953 -7.030266 0.866599 3.567816 -3.437781 1.210610 0.000000 0.000000 0.000000 5.926355 2.821732 -37.934531 14.449503 -23.373675 3.004161 15.356792 -36.683806 -7.551571 0.000000 0.000000 0.000000 -7.125000 0.000000 0.000000 -9.768183 37.643340 -1.789440 0.000000 0.000000 0.000000 -2.367433 6.559121 17.915610 -17.247083 -27.181778 -4.199908 -8.493982 16.650946 -9.702203 0.000000 0.000000 0.000000 7.125000 0.000000 0.000000 13.140392 20.285712 7.979031
3.303352 17.689814 0.172163 350.604033 90.179667 348.016990 0.000000 0.000000 0.000000 -16.343353 2.310597 3.604589 0.152413 2.515539 6.932739 0.212901 -3.929487 -8.244400 0.068404 -1.687656 -4.643120 0.000000 0.000000 0.000000 18.769567 -0.172366 2.813941 -0.657678 -5.186986 14.442554 -1.100061 -0.854224 -20.148184 -0.185129 2.769201 -7.636980 2.926191 0.454245 6.909853 -0.775156 0.818584 0.422336 -2.526132 0.363155 -3.386949 -5.455118 -5.342142 -2.283423 8.617718 -7.117369 1.146745 3.606694 -3.475268 1.331947 0.000000 0.000000 0.000000 6.439470 2.683987 -40.060815 15.283154 -24.538778 3.342873 15.220249 -36.990153 -8.551477 0.000000 0.000000 0.000000 -7.125000 0.000000 0.000000 -10.056466 38.652382 -1.591347 0.000000 0.000000 0.000000 -2.904890 8.014299 20.721990 -21.210671 -32.069389 -6.163335 -6.521765 15.941832 -8.418629 0.000000 0.000000 0.000000 7.125000 0.000000 0.000000 14.630980 21.598846 8.492747
3.300347 17.692092 0.172473 402.252302 90.240504 399.790983 0.000000 0.000000 0.000000 -16.142424 2.118255 3.083000 0.185392 2.772920 7.647271 0.226454 -4.098912 -8.508446 0.065317 -1.648697 -4.535697 0.000000 0.000000 0.000000 19.020412 0.019875 2.859764 -0.636641 -5.104805 14.207762 -1.099964 -1.024486 -20.214219 -0.159884 2.568968 -7.081299 3.192678 0.469961 6.651332 -0.803866 0.850172 0.430394 -2.704836 0.377547 -3.227518 -5.395082 -5.364624 -2.345912 8.642182 -7.161407 1.385698 3.598735 -3.491981 1.422902 0.000000 0.000000 0.000000 7.415438 2.227513 -43.307859 17.298700 -27.248339 4.223982 15.364387 -37.328526 -9.207254 0.000000 0.000000 0.000000 -7.125000 0.000000 0.000000 -10.053946 39.330394 -1.421033 0.000000 0.000000 0.000000 -4.111402 8.843384 24.648798 -27.066178 -38.233994 -9.543326 -5.918839 15.355687 -8.123976 0.000000 0.000000 0.000000 7.125000 0.000000 0.000000 15.084750 21.898061 8.668128
3.288539 17.686425 0.165588 400.868646 90.107663 398.388174 0.000000 0.000000 0.000000 -16.274916 2.106530 2.733301 0.214592 2.982416 8.229795 0.240206 -4.211516 -8.761411 0.074734 -1.763394 -4.852191 0.000000 0.000000 0.000000 18.914253 -0.078815 2.858390 -0.626909 -5.066635 14.098726 -1.070293 -1.195011 -20.013851 -0.221173 3.026262 -8.351985 3.175517 0.432027 6.503267 -0.927871 0.789288 0.455771 -2.815659 0.349131 -3.121024 -5.245276 -5.321679 -2.324366 8.584281 -7.126416 1.712235 3.549565 -3.470445 1.513038 0.000000 0.000000 0.000000 8.593279 1.001268 -46.904916 20.568799 -31.320557 5.824620 15.491448 -37.143074 -10.329901 0.000000 0.000000 0.000000 -7.125000 0.000000 0.000000 -10.160971 40.482879 -1.145062 0.000000 0.000000 0.000000 -6.209020 8.265591 29.284073 -34.841789 -44.689932 -14.704943 -4.429641 13.366091 -6.865383 0.000000 0.000000 0.000000 7.125000 0.000000 0.000000 16.274006 23.135820 8.923295
3.259015 17.686516 0.157800 386.201669 90.262287 383.677975 0.000000 0.000000 0.000000 -16.267775 1.874814 2.574792 0.227259 3.068685 8.469979 0.238121 -4.240657 -8.728972 0.064240 -1.635329 -4.498850 0.000000 0.000000 0.000000 18.902504 -0.399776 2.714048 -0.624135 -5.055630 14.067355 -1.044024 -1.307422 -19.818635 -0.268461 3.332816 -9.206878 3.301358 0.387206 6.371269 -0.953830 0.733258 0.462616 -2.906521 0.320962 -3.042129 -5.420974 -5.342390 -2.403309 8.694490 -7.189694 2.390804 3.612987 -3.491285 1.768130 0.000000 0.000000 0.000000 10.026247 -1.959992 -52.100029 24.484053 -35.671292 7.987351 15.048617 -36.188384 -10.870126 0.000000 0.000000 0.000000 -7.125000 0.000000 0.000000 -10.656234 40.992702 -1.066991 0.000000 0.000000 0.000000 -9.008674 5.806663 33.396723 -44.737703 -50.636802 -22.036540 -3.049222 13.403290 -6.551509 0.000000 0.000000 0.000000 7.125000 0.000000 0.000000 17.293225 23.447335 9.404876
3.219954 17.688437 0.151741 394.118987 90.169371 391.528947 0.000000 0.000000 0.000000 -16.319287 1.946951 2.507041 0.226377 3.062458 8.452625 0.232745 -4.179420 -8.627561 0.070088 -1.707456 -4.697909 0.000000 0.000000 0.000000 18.842976 -0.342954 2.505790 -0.645478 -5.139591 14.307150 -1.037474 -1.234482 -19.727874 -0.272428 3.356597 -9.273133 3.342093 0.395201 6.198059 -1.017396 0.738824 0.468737 -2.993423 0.324877 -2.936995 -5.294715 -5.290536 -2.499652 8.444632 -7.154971 3.115700 3.497635 -3.465494 2.002951 0.000000 0.000000 0.000000 11.252599 -6.714573 -56.806851 28.754884 -39.799939 10.604201 14.951332 -36.018839 -10.036532 0.000000 0.000000 0.000000 -7.125000 0.000000 0.000000 -10.568796 40.139479 -1.282805 0.000000 0.000000 0.000000 -12.303281 0.893852 37.795424 -56.402263 -55.267012 -31.366680 -1.963962 13.202820 -6.823567 0.000000 0.000000 0.000000 7.125000 0.000000 0.000000 18.027314 23.191971 9.957192
3.186322 17.690296 0.141757 372.017927 90.791420 369.306905 0.000000 0.000000 0.000000 -16.294591 1.265579 2.511803 0.237620 3.137122 8.660773 0.230041 -4.074886 -8.569864 0.073389 -1.747796 -4.809188 0.000000 0.000000 0.000000 18.915660 -0.628217 2.668478 -0.621485 -5.044979 14.036801 -1.045359 -1.466805 -19.897926 -0.237707 3.137637 -8.662113 3.500765 0.187746 5.759010 -1.063274 0.455602 0.504847 -3.101624 0.187244 -2.673723 -5.264489 -5.262733 -2.553722 8.395109 -7.163390 4.001655 3.470683 -3.456003 2.303764 0.000000 0.000000 0.000000 12.339560 -13.115626 -61.724108 32.993032 -43.322700 13.417960 15.553746 -35.260599 -9.278875 0.000000 0.000000 0.000000 -7.125000 0.000000 0.000000 -9.905175 39.417910 -1.377604 0.000000 0.000000 0.000000 -15.760471 -6.715071 41.811505 -68.003338 -58.083985 -41.073515 -0.336609 12.318493 -6.661616 0.000000 0.000000 0.000000 7.125000 0.000000 0.000000 19.193821 23.345762 10.604800
3.137323 17.686731 0.153027 422.237616 90.201163 419.203050 0.000000 0.000000 0.000000 -16.225146 1.956495 2.495174 0.246545 3.194971 8.821953 0.233322 -4.130493 -8.633634 0.069495 -1.696155 -4.666768 0.000000 0.000000 0.000000 18.927984 -0.414768 2.749621 -0.632476 -5.088561 14.161303 -1.006517 -1.316381 -19.473150 -0.262176 3.293918 -9.098178 3.370404 0.463366 5.890099 -1.125608 0.817391 0.360063 -3.124359 0.362060 -2.868880 -5.130979 -5.207798 -2.486974 8.370538 -7.150965 5.072392 3.438086 -3.430894 2.641951 0.000000 0.000000 0.000000 12.977901 -20.957767 -67.501775 35.845456 -45.405461 15.412671 16.710989 -33.964074 -8.677097 0.000000 0.000000 0.000000 -7.125000 0.000000 0.000000 -8.808443 38.890204 -1.337930 0.000000 0.000000 0.000000 -19.031494 -16.125134 45.245119 -75.943691 -59.238929 -47.858086 -0.111088 11.028178 -7.084717 0.000000 0.000000 0.000000 7.125000 0.000000 0.000000 19.292383 22.945901 10.855022
